# xmcd CD database file
#
# Track frame offsets:
#	150
#	22074
#	32966
#	47766
#	64389
#	73926
#	94193
#	109367
#	138785
#	156887
#	170049
#	183184
#	202393
#	220368
#	234892
#	251394
#	263204
#	285294
#
# Disc length: 4112 seconds
#
# Revision: 1
# Processed by: cddbd v1.5.2PL0 Copyright (c) Steve Scherf et al.
# Submitted via: CDex 1.51
#
DISCID=14100e12
DTITLE=Various Artist - Booklovers Lounge CD2
DYEAR=2011
DGENRE=Jazz
TTITLE0=Easy - Commodores
TTITLE1=(They Long To Be) Close To You - Dionne Warwick
TTITLE2=A Sunday Kind Of Love - Etta James
TTITLE3=Come Rain Or Come Shine - Ray Charles
TTITLE4=Baby Won't You Please Come Home - Dinah Washington
TTITLE5=A Kiss To Build A Dream On - Louis Armstrong And The Allstars
TTITLE6=My Romance - Chris Botti
TTITLE7=Adore - Prince
TTITLE8=Manhattan (Island Of Lights And Love) - Herbie Hancock
TTITLE9=Feeling Good - Nina Simone
TTITLE10=If This World Were Mine - Marvin Gaye and Tammi Terrell
TTITLE11=Desafinado - Stan Getz and Charlie Byrd
TTITLE12=It's Raining Today - Scott Walker
TTITLE13=The Fool On The Hill - Sergio Mendes and Brasil '66
TTITLE14=Little Girl Blue - Stan Getz, Gary Burton
TTITLE15=Gentle On My Mind - Dean Martin
TTITLE16=My One And Only Love - John Coltrane, Johnny Hartman
TTITLE17=Where Are You? - Sonny Rollins
EXTD=YEAR: 2011
EXTT0=
EXTT1=
EXTT2=
EXTT3=
EXTT4=
EXTT5=
EXTT6=
EXTT7=
EXTT8=
EXTT9=
EXTT10=
EXTT11=
EXTT12=
EXTT13=
EXTT14=
EXTT15=
EXTT16=
EXTT17=
PLAYORDER=
